HIERARCHY
ROOT hip
{
  OFFSET 0.0 0.0 0.0
  CHANNELS 6 Xposition Yposition Zposition Zrotation Yrotation Xrotation
  JOINT torso
  {
    OFFSET 0.0 0.0 0.0
    CHANNELS 3 Zrotation Xrotation Yrotation
    JOINT neck
    {
      OFFSET -8.600829999999974 327.7417449999999 60.895874000000276
      CHANNELS 3 Zrotation Xrotation Yrotation
      JOINT head
      {
        OFFSET 0.7211610000001087 266.848846 239.12060599999995
        CHANNELS 3 Zrotation Xrotation Yrotation
        End Site
        {
          OFFSET 0.0 0.0 0.0
        }
      }
    }
    JOINT left_collar
    {
      OFFSET -8.600829999999974 327.7417449999999 60.895874000000276
      CHANNELS 3 Zrotation Xrotation Yrotation
      JOINT left_upper_arm
      {
        OFFSET -122.29599000000002 -5.21875 31.800903999999946
        CHANNELS 3 Zrotation Xrotation Yrotation
        JOINT left_forearm
        {
          OFFSET -195.94708199999997 63.423126000000025 226.99352999999996
          CHANNELS 3 Zrotation Xrotation Yrotation
          JOINT left_hand
          {
            OFFSET -232.19226099999992 28.282164999999964 80.86950699999989
            CHANNELS 3 Zrotation Xrotation Yrotation
            End Site
            {
              OFFSET 0.0 0.0 0.0
            }
          }
        }
      }
    }
    JOINT right_collar
    {
      OFFSET -8.600829999999974 327.7417449999999 60.895874000000276
      CHANNELS 3 Zrotation Xrotation Yrotation
      JOINT right_upper_arm
      {
        OFFSET 168.41261300000002 -11.913361000000066 -9.389160000000174
        CHANNELS 3 Zrotation Xrotation Yrotation
        JOINT right_forearm
        {
          OFFSET 213.49279800000005 104.82293699999997 83.52258300000017
          CHANNELS 3 Zrotation Xrotation Yrotation
          JOINT right_hand
          {
            OFFSET 222.067185 62.005675999999994 -110.52026300000034
            CHANNELS 3 Zrotation Xrotation Yrotation
            End Site
            {
              OFFSET 0.0 0.0 0.0
            }
          }
        }
      }
    }
  }
}
MOTION
Frames: 13
Frame Time: 0.01
-338.7282461044571 120.43083017706661 1453.491240310039 4.526521205847738 -18.659644068256704 -15.899991636137688 -1.954673946896458 9.380748366847564 0.45631111146485437 -5.883142747830485 2.373228841676631 5.242523797479158 0.0 0.0 0.0 0.04929824157831782 -0.13457160047181616 3.4427815902498398 56.14063883653213 42.80797474144451 26.8050645047256 35.03978072482225 12.629724164208978 -2.4507293176078506 0.0 0.0 0.0 -6.1891071001002675 -0.36228377258240285 -0.12414237614827937 -71.13501733109415 18.5799621073608 -23.050830349350626 -30.057013018338324 -14.050087393366377 2.6144482923734853 0.0 0.0 0.0
-339.4324601913765 120.14855668745558 1453.566618742317 4.448741625046542 -18.695940317974564 -15.868454477416876 -1.8730786240939497 9.40390643110359 0.44797533276638835 -5.9034314358166595 2.3405280159540522 5.261070582952422 0.0 0.0 0.0 0.0825431027830241 -0.12970584350408912 3.506305161523413 56.13616382017441 42.83378043631118 26.737085747413737 35.06079682320286 12.640949208938935 -2.465692352689917 0.0 0.0 0.0 -6.1944462623424315 -0.35665579364357597 -0.07685729495359549 -71.10656762654007 18.585065300750596 -23.010465009283475 -30.04262590872724 -14.038296896744502 2.7375565987281623 0.0 0.0 0.0
-340.1427675945446 119.85217283810037 1453.653639225142 4.3714063074874066 -18.734517881388587 -15.836569035254216 -1.7921052729672022 9.428683631490692 0.4397564456604824 -5.922302132852778 2.307025397177899 5.278364303852048 0.0 0.0 0.0 0.11614904559748578 -0.12468395874098182 3.5672271416277943 56.132922158077314 42.86010890952037 26.669679042813474 35.0806132482818 12.651591649703121 -2.4800333288933643 0.0 0.0 0.0 -6.200513940970012 -0.3512498515008533 -0.031045740957275348 -71.07860001688368 18.590675268475568 -22.96777999553747 -30.02533322985571 -14.024755435922453 2.872856313184686 0.0 0.0 0.0
-340.860503021251 119.5399647899007 1453.7527793443862 4.295371030226925 -18.775777508880513 -15.803575916324831 -1.7127267935251598 9.455549444513462 0.4317650111522737 -5.938844265699104 2.2722549600261113 5.293597968088365 0.0 0.0 0.0 0.149899837371595 -0.11947890387057802 3.623836099312139 56.131471454299174 42.886843927336834 26.603936755796106 35.099326356154464 12.661590242070469 -2.49332048072975 0.0 0.0 0.0 -6.207553019976381 -0.34623346535523153 0.012061993576970707 -71.05133368097418 18.596805485465172 -22.922823350890845 -30.005926993883335 -14.009803316353315 3.020686037700211 0.0 0.0 0.0
-341.58716005635154 119.21058745677553 1453.863978573248 4.22143601984038 -18.820044411529498 -15.768727779371348 -1.635874314982388 9.484951961309083 0.42410722352316355 -5.952175401723392 2.235692144091164 5.305990274951316 0.0 0.0 0.0 0.1835797533074115 -0.11406500487456701 3.6745128466536023 56.132355909533224 42.913849025562605 26.540980591095654 35.117055794759224 12.670889344971158 -2.5051089504442032 0.0 0.0 0.0 -6.215791751169713 -0.341762160392077 0.051324748317459735 -71.02496994041995 18.60344516178919 -22.875754901193854 -29.985384527382283 -13.993879784480189 3.1808705555140078 0.0 0.0 0.0
-342.32426910890973 118.86319068819631 1453.986542521191 4.150324916316103 -18.8675426455989 -15.731320246788183 -1.5624131861736243 9.517297982762267 0.41688185011656603 -5.9614713867571565 2.1967679445212633 5.314812308574496 0.0 0.0 0.0 0.21697568383274293 -0.10842017983850291 3.717786729123658 56.136087163725364 42.94096464228126 26.48193980461697 35.1339417572119 12.679440455847223 -2.5149520802190737 0.0 0.0 0.0 -6.225433785824576 -0.33797368841750347 0.08573349393324016 -70.99968715471294 18.610555258959483 -22.826863643347977 -29.96487247198481 -13.977524498747947 3.352653789370809 0.0 0.0 0.0
-343.0732774819656 118.4975327361911 1454.1190595186004 4.0826687042077365 -18.918372545022336 -15.690719337222514 -1.493122682795514 9.552933880939564 0.4101774904529897 -5.965994682447278 2.1548860238013 5.319412576486728 0.0 0.0 0.0 0.24987922886196479 -0.10252807705073355 3.7523862725017882 56.14312490029857 42.96800569781204 26.427927796033355 35.15014286535129 12.6872042388629 -2.5224138564519127 0.0 0.0 0.0 -6.2366490082945285 -0.33498310346727417 0.11444798900218373 -70.97563592834987 18.61806532933545 -22.776581161684987 -29.945748100598497 -13.961376484930843 3.534652109025593 0.0 0.0 0.0
-343.83543725043694 118.11407494029798 1454.2593337132128 4.018995194059891 -18.97249241983638 -15.646383939169912 -1.4286800253090963 9.592127962479486 0.4040702663742788 -5.9651198133873855 2.109442635110019 5.319239426035262 0.0 0.0 0.0 0.2820887508429185 -0.09638000574742048 3.7772819261171082 56.15385781413964 42.99475982686502 26.38001755471273 35.16583480861299 12.694153024012763 -2.52708220965839 0.0 0.0 0.0 -6.249565618411298 -0.3328789129499125 0.13682526842194906 -70.95293471147247 18.62587139255838 -22.72548999318306 -29.929557267330626 -13.946170504279278 3.724831276595306 0.0 0.0 0.0
-344.6117060155996 117.71405189105538 1454.4043384856086 3.9597241860291317 -19.029705621452006 -15.597882187518875 -1.3696489247512482 9.635055052022908 0.39862202160818855 -5.958354999701759 2.0598490124605227 5.3138600238413 0.0 0.0 0.0 0.31341128903509957 -0.08997656065014042 3.7917190332376913 56.16858564175603 43.02098646072678 26.339216617495524 35.181209807569296 12.700273720020746 -2.5285828104438215 0.0 0.0 0.0 -6.264263868086246 -0.3317204610574807 0.15243863314985345 -70.93166586387736 18.633835032364686 -22.674326018309394 -29.91802811009382 -13.932730864669379 3.920509155806376 0.0 0.0 0.0
-345.402664747365 117.29951196042417 1454.5501934474687 3.905168068546644 -19.08965388887684 -15.544901104497653 -1.3164725734301082 9.681783964142683 0.39387907794931154 -5.945359279614451 2.0055557281742376 5.302975292456225 0.0 0.0 0.0 0.3436642069708443 -0.08332886666540043 3.7952397292905173 56.18750300774004 43.04641694628206 26.306442324385415 35.19647686855458 12.705571037946592 -2.52659296867661 0.0 0.0 0.0 -6.280771775684102 -0.33153662319652005 0.16108644792588578 -70.91187224309893 18.64178385500326 -22.6239741790955 -29.91305943169013 -13.921962784879877 4.118385053466972 0.0 0.0 0.0
-346.20845584122674 116.8733240443123 1454.6921675679687 3.8555373065540572 -19.151817632184898 -15.48724946662705 -1.2694707813797368 9.732268441536233 0.38987156684016355 -5.9259546932819935 1.946078359353349 5.286430440502161 0.0 0.0 0.0 0.3726764688968646 -0.07645939286362925 3.7876931605067474 56.210685826964585 43.07075586868854 26.2824981911553 35.211862648161706 12.710070863637267 -2.520855226918486 0.0 0.0 0.0 -6.29906302100301 -0.33232580506422715 0.16279076749209384 -70.89355437809104 18.649513398161737 -22.57545711512437 -29.91670254750292 -13.914841476988174 4.31459531084302 0.0 0.0 0.0
-347.02874321413833 116.43914765514313 1454.8247100820672 3.8109500529077875 -19.215523484985717 -15.424854455632364 -1.2288408183870185 9.786341998606932 0.38661332907165885 -5.900133363557597 1.8810236633195478 5.264220961149088 0.0 0.0 0.0 0.4002895031897739 -0.06940230417499067 3.7692341210708133 56.23808091724552 43.09368371156802 26.26805216356837 35.2276125814978 12.713823550603594 -2.511190215538516 0.0 0.0 0.0 -6.319057084398918 -0.3340571600390523 0.15778649768386319 -70.87666831165704 18.656790522402343 -22.52991663682767 -29.931135335526502 -13.912399131982696 4.504793600868276 0.0 0.0 0.0
-347.8626947897245 116.00136510917285 1454.941509786689 3.7714449705280284 -19.279959085968446 -15.357753156273034 -1.194661442331471 9.8437169308116 0.3841023515365612 -5.8680595413468515 1.810115355810801 5.236494181408407 0.0 0.0 0.0 0.4263576820601481 -0.062203337212500986 3.740310839273293 56.26949934500983 43.11486094378983 26.263617405681572 35.243991780104515 12.716906840428882 -2.497508291022383 0.0 0.0 0.0 -6.340621563372782 -0.33667287355003006 0.14650237016403297 -70.86112423275682 18.66335826192381 -22.48858828606489 -29.95862729512356 -13.915709976126523 4.684253388541854 0.0 0.0 0.0
